<svg xmlns="http://www.w3.org/2000/svg" width="81.563" height="21.5" viewBox="0 0 81.563 21.5"><defs><style>.a{fill:#00d700;}</style></defs><g transform="translate(-230.259 -281.487)"><path class="a" d="M325.371,287.5l4.7-1.745-4.7-1.835v-2.429l8.042,3.239v2.015L325.371,290Z" transform="translate(-47.573)"/><path d="M233.354,312.043c-1.691,0-3.095-.864-3.095-2.771v-.108c0-2.321,2.015-3.077,4.444-3.077h1.17v-.449c0-.936-.414-1.511-1.385-1.511a1.29,1.29,0,0,0-1.421,1.224h-2.519c.18-2.087,1.835-3.113,4.066-3.113,2.267,0,3.887.972,3.887,3.31v6.3h-2.573v-1.08A2.981,2.981,0,0,1,233.354,312.043Zm2.519-3.329v-.9h-1.044c-1.3,0-1.961.36-1.961,1.206v.089c0,.648.4,1.1,1.278,1.1A1.55,1.55,0,0,0,235.873,308.714Zm8.583,3.329c-2.609,0-4.5-1.619-4.5-4.8v-.126c0-3.184,2.015-4.876,4.515-4.876,2.141,0,3.9,1.08,4.12,3.544h-2.519c-.162-.917-.63-1.511-1.547-1.511-1.116,0-1.889.881-1.889,2.735v.288c0,1.907.683,2.771,1.907,2.771a1.761,1.761,0,0,0,1.709-1.691h2.393A3.849,3.849,0,0,1,244.455,312.043Zm9.789,0c-2.609,0-4.5-1.619-4.5-4.8v-.126c0-3.184,2.015-4.876,4.515-4.876,2.141,0,3.9,1.08,4.12,3.544h-2.519c-.162-.917-.63-1.511-1.547-1.511-1.116,0-1.889.881-1.889,2.735v.288c0,1.907.683,2.771,1.907,2.771a1.761,1.761,0,0,0,1.709-1.691h2.393A3.849,3.849,0,0,1,254.244,312.043Zm9.861,0c-2.717,0-4.569-1.619-4.569-4.75v-.18c0-3.148,1.96-4.876,4.479-4.876,2.339,0,4.3,1.314,4.3,4.426V307.8H262.2c.108,1.691.827,2.339,1.961,2.339a1.625,1.625,0,0,0,1.727-1.223h2.429C268.027,310.694,266.57,312.043,264.1,312.043Zm-1.871-5.991h3.527c-.055-1.385-.684-1.979-1.727-1.979C263.2,304.073,262.45,304.523,262.233,306.052Zm7.7-3.616h2.627v1.4a3.063,3.063,0,0,1,2.843-1.6c1.709,0,2.842,1.026,2.842,3.31v6.3h-2.627v-5.9c0-1.1-.449-1.583-1.4-1.583a1.575,1.575,0,0,0-1.655,1.745v5.739h-2.627Zm13.225-2.843v2.843h1.8V304.4h-1.8v4.461c0,.7.324,1.026.936,1.026a2.263,2.263,0,0,0,.917-.161v2.051a5.358,5.358,0,0,1-1.475.2c-2.051,0-3.022-.936-3.022-2.843V304.4h-1.1v-1.961h1.1v-1.764Zm11.7,12.252h-2.627V310.46a2.867,2.867,0,0,1-2.735,1.583c-1.691,0-2.932-1.026-2.932-3.238v-6.369h2.645v5.973c0,1.079.431,1.583,1.367,1.583a1.583,1.583,0,0,0,1.655-1.745v-5.811h2.627Zm1.908-9.409h2.627v1.727a2.807,2.807,0,0,1,2.825-1.853v2.59c-1.781,0-2.825.54-2.825,2.105v4.84h-2.627Zm10.85,9.607c-2.717,0-4.57-1.619-4.57-4.75v-.18c0-3.148,1.961-4.876,4.479-4.876,2.339,0,4.3,1.314,4.3,4.426V307.8h-6.117c.107,1.691.827,2.339,1.96,2.339a1.625,1.625,0,0,0,1.728-1.223h2.429C311.535,310.694,310.078,312.043,307.613,312.043Zm-1.871-5.991h3.527c-.054-1.385-.684-1.979-1.727-1.979C306.713,304.073,305.958,304.523,305.741,306.052Z" transform="translate(0 -9.056)"/></g></svg>