<svg xmlns="http://www.w3.org/2000/svg" width="16" height="16" viewBox="0 0 16 16"><defs><style>.a{fill:none;}.b,.d{fill:#616365;}.c,.d{stroke:none;}</style></defs><g transform="translate(2 2)"><g class="a" transform="translate(0 0)"><path class="c" d="M6,0A6,6,0,1,1,0,6,6,6,0,0,1,6,0Z"/><path class="d" d="M 6 -9.5367431640625e-07 C 2.68628978729248 -9.5367431640625e-07 0 2.68628978729248 0 5.999999523162842 C 0 9.313709259033203 2.68628978729248 12 6 12 C 9.31371021270752 12 12 9.313709259033203 12 5.999999523162842 C 12 2.68628978729248 9.31371021270752 -9.5367431640625e-07 6 -9.5367431640625e-07 M 6 -2.000000953674316 C 10.41121006011963 -2.000000953674316 14 1.588789939880371 14 5.999999523162842 C 14 10.41120910644531 10.41121006011963 14 6 14 C 1.588789939880371 14 -2 10.41120910644531 -2 5.999999523162842 C -2 1.588789939880371 1.588789939880371 -2.000000953674316 6 -2.000000953674316 Z"/></g><path class="b" d="M0,0H2V4h.667v.667H0V4H.667V.667H0Z" transform="translate(4.667 4.667)"/><path class="b" d="M0,0H1.333V1.333H0Z" transform="translate(5.333 2)"/></g></svg>